<svg width="1344" height="509" viewBox="0 0 1344 509" fill="none" xmlns="http://www.w3.org/2000/svg">
<path d="M143.5 299.5V322H116.5V278H192.5C192.5 278 206 276.5 206 267.5C206 258.5 192.5 257.5 192.5 257.5H116.5L133.5 235.5H192.5C192.5 235.5 233.5 236 233.5 263.5C233.5 291 212.5 293.5 212.5 293.5L239.5 322H203L184.5 299.5H143.5Z" fill="white" stroke="white"/>
<path d="M69.5 322H42.5L42 258.5H1.5L19 235.5H118L100.5 258.5H69.5V322Z" fill="white" stroke="white"/>
<path d="M274.5 322.5H242L301.5 238.5C301.5 238.5 308.931 234.051 314 234C319.257 233.947 328 238.5 328 238.5L386 322.5H285L301.5 299.5H337.5L314 265.5L274.5 322.5Z" fill="white" stroke="white"/>
<path d="M998.5 321.501H966L1025.5 237.501C1025.5 237.501 1032.93 233.051 1038 233.001C1043.26 232.948 1052 237.501 1052 237.501L1110 321.501H1009L1025.5 298.501H1061.5L1038 264.501L998.5 321.501Z" fill="white" stroke="white"/>
<path d="M420 323H394.5L395 246C395 246 396.192 241.361 398 239C399.687 236.797 400.974 235.649 403.5 234.5C407.588 232.64 415 234.5 415 234.5L473 285.5V235.5H497.5V312C497.5 312 495.129 319.008 491 321.5C486.319 324.326 477 322.5 477 322.5L420 272V323Z" fill="white" stroke="white"/>
<path d="M1197.5 321.5L1114 322L1131 299H1197C1197 299 1205 299.5 1205 293C1205 286.5 1197 287 1197 287H1146C1146 287 1117.5 287 1117 262C1116.5 237 1146 235 1146 235H1229L1212 257.5L1147.5 258C1147.5 258 1143.5 259 1143.5 264C1143.5 268 1147.5 269 1147.5 269L1205 269.5C1205 269.5 1230 267 1231.5 294C1233 321 1197.5 321.5 1197.5 321.5Z" fill="white" stroke="white"/>
<path d="M592.5 321.5L509 322L526 299H592C592 299 600 299.5 600 293C600 286.5 592 287 592 287H541C541 287 512.5 287 512 262C511.5 237 541 235 541 235H624L607 257.5L542.5 258C542.5 258 538.5 259 538.5 264C538.5 268 542.5 269 542.5 269L600 269.5C600 269.5 625 267 626.5 294C628 321 592.5 321.5 592.5 321.5Z" fill="white" stroke="white"/>
<path d="M665 322H638V277.5H715.5C715.5 277.5 726 275 725.5 267C725 259 715.5 258 715.5 258H638L656 235L720.5 235.5C720.5 235.5 753 239 753 267C753 295 720.5 299.5 720.5 299.5L665 300V322Z" fill="white" stroke="white"/>
<path d="M841.5 322H765L764.5 235H792V299.5H858.5L841.5 322Z" fill="white" stroke="white"/>
<path d="M951.5 322H868V235.5H968.5L951.5 258.5H895.5V269H963L948 288H895.5V299.5H968.5L951.5 322Z" fill="white" stroke="white"/>
<path d="M1325.5 322.5H1242V236H1342.5L1325.5 259H1269.5V269.5H1337L1322 288.5H1269.5V300H1342.5L1325.5 322.5Z" fill="white" stroke="white"/>
<path d="M369.5 198.824H304C304 198.824 408.5 129.823 472.5 104.323C536.5 78.8235 581.5 64.8235 656 52.8235C730.5 40.8234 801.065 58.3235 828 87.8234C854.935 117.323 820 212.824 820 212.824C820 212.824 853.5 120.744 752 98.8234C587.5 63.2975 369.5 198.824 369.5 198.824Z" fill="#2F5953" stroke="#2F5953"/>
<path d="M222 198H254C254 198 363 106 481 68C665.5 -1.5 740.5 48 740.5 48C740.5 48 708 -60.5 436.5 53.5C295.5 118 222 198 222 198Z" fill="#F69322" stroke="#F69322"/>
<path d="M183.5 364.5H148C148 364.5 136.5 396 136.5 420C136.5 447.46 164 471.5 164 471.5C164 471.5 156.44 447.234 158.5 428.5C161.227 403.701 183.5 364.5 183.5 364.5Z" fill="#2F5953" stroke="#2F5953"/>
<path d="M474 435H537L482 462L413 487.5C413 487.5 275 530.5 219.5 491.5C164 452.5 212.5 386 212.5 386C212.5 386 189 442 246 466.5C335.249 504.861 474 435 474 435Z" fill="#F69322" stroke="#F69322"/>
</svg>
